<svg xmlns="http://www.w3.org/2000/svg" xmlns:xlink="http://www.w3.org/1999/xlink" width="793" zoomAndPan="magnify" viewBox="0 0 595.5 842.249979" height="1122" preserveAspectRatio="xMidYMid meet" version="1.0"><defs><clipPath id="e35b778a0a"><path d="M 0.015625 0 L 594.984375 0 L 594.984375 841.5 L 0.015625 841.5 Z M 0.015625 0 " clip-rule="nonzero"/></clipPath><clipPath id="ba48c4b98e"><path d="M 0.015625 0 L 547 0 L 547 841.5 L 0.015625 841.5 Z M 0.015625 0 " clip-rule="nonzero"/></clipPath><clipPath id="4bab603467"><path d="M 475 0 L 594.984375 0 L 594.984375 752 L 475 752 Z M 475 0 " clip-rule="nonzero"/></clipPath><clipPath id="635ac26e2b"><path d="M 0.015625 0 L 594.984375 0 L 594.984375 841.5 L 0.015625 841.5 Z M 0.015625 0 " clip-rule="nonzero"/></clipPath></defs><g clip-path="url(#e35b778a0a)"><path fill="#ffffff" d="M 0.015625 0 L 595.484375 0 L 595.484375 848.957031 L 0.015625 848.957031 Z M 0.015625 0 " fill-opacity="1" fill-rule="nonzero"/><path fill="#ffffff" d="M 0.015625 0 L 595.484375 0 L 595.484375 842.207031 L 0.015625 842.207031 Z M 0.015625 0 " fill-opacity="1" fill-rule="nonzero"/><path fill="#ffffff" d="M 0.015625 0 L 595.484375 0 L 595.484375 842.207031 L 0.015625 842.207031 Z M 0.015625 0 " fill-opacity="1" fill-rule="nonzero"/><rect x="-59.55" width="714.6" fill="#c1f8cf" y="-84.224998" height="1010.699974" fill-opacity="1"/></g><g clip-path="url(#ba48c4b98e)"><path fill="#4fd3c4" d="M 25.976562 537.890625 C 29.792969 541.898438 33.660156 545.871094 37.511719 549.828125 C 61.5625 574.492188 86.453125 599.976562 92.652344 632.605469 C 96.484375 652.785156 92.878906 675.035156 81.9375 699.03125 C 63.101562 689.738281 46.753906 677.625 35.550781 659.28125 C 13.863281 623.660156 21.8125 580.703125 25.976562 537.890625 Z M 209.648438 752.417969 C 174.882812 727.25 127.519531 719.546875 88.800781 702.234375 C 83.671875 713.472656 77.035156 725.027344 68.878906 736.894531 C 62.296875 746.449219 55.175781 755.832031 48.296875 764.898438 C 33.347656 784.59375 17.90625 804.914062 7.789062 827.546875 C 3.695312 836.703125 0.332031 847.378906 -1.488281 858.617188 L 275.148438 858.617188 C 262.703125 816.816406 244.234375 777.46875 209.648438 752.417969 Z M -12.304688 459.785156 C -8.191406 485.953125 8.191406 507.554688 26.871094 527.738281 C 28.496094 506.996094 28.601562 486.445312 23.386719 466.890625 C 17.734375 445.765625 6.25 428.242188 -8.574219 414.835938 C -12.777344 429.625 -14.71875 444.453125 -12.304688 459.785156 Z M 42.257812 760.3125 C 49.136719 751.265625 56.1875 741.96875 62.632812 732.585938 C 70.558594 721.050781 77 709.847656 81.9375 699.015625 C 63.101562 689.71875 46.753906 677.605469 35.550781 659.261719 C 13.847656 623.660156 21.792969 580.703125 25.960938 537.890625 C 4.605469 515.429688 -15.015625 491.449219 -19.8125 460.976562 C -22.578125 443.347656 -19.953125 426.246094 -14.894531 409.566406 C -50.5 381.769531 -101.644531 375.433594 -139.890625 396.402344 L -139.890625 858.617188 L -9.171875 858.617188 C -7.28125 846.242188 -3.640625 834.480469 0.839844 824.449219 C 11.34375 800.992188 27.0625 780.320312 42.257812 760.3125 Z M 484.199219 114.414062 C 481.800781 106.324219 479.839844 98.011719 478.40625 89.609375 C 459.765625 85.214844 441.753906 78.894531 425.789062 68.027344 C 405.710938 54.375 391.078125 30.234375 388.523438 6.535156 C 387.628906 -1.710938 388.207031 -9.464844 390.167969 -16.589844 L 96.132812 -16.589844 C 66.359375 27.46875 75.898438 90.273438 144.550781 119.574219 C 176.335938 133.160156 211.714844 135.417969 246.265625 136.117188 C 280.835938 136.800781 315.84375 136.136719 349.417969 144.414062 C 407.058594 158.609375 454.792969 197.503906 504.855469 229.398438 C 518.457031 238.0625 532.355469 246.253906 546.425781 254.128906 C 542.664062 244.695312 538.53125 235.402344 534.210938 226.28125 C 516.671875 189.328125 495.859375 153.621094 484.199219 114.414062 Z M 396.015625 5.730469 C 398.34375 27.3125 411.699219 49.316406 430.023438 61.796875 C 444.21875 71.441406 460.339844 77.355469 477.199219 81.539062 C 473.363281 51.695312 476.601562 21.132812 491.359375 -4.71875 C 493.808594 -9.007812 496.609375 -12.949219 499.707031 -16.589844 L 398.042969 -16.589844 C 395.855469 -9.832031 395.140625 -2.339844 396.015625 5.730469 Z M 396.015625 5.730469 " fill-opacity="1" fill-rule="nonzero"/></g><g clip-path="url(#4bab603467)"><path fill="#488fb1" d="M 735.332031 737.769531 C 729.101562 742.109375 722.324219 745.679688 715.042969 748.199219 C 684.5 758.808594 645.34375 746.328125 632.949219 716.464844 C 618.386719 681.421875 643.171875 639.289062 628.941406 604.125 C 615.847656 571.757812 575.886719 559.417969 555.300781 531.21875 C 536.308594 505.191406 536.746094 469.710938 543.433594 438.203125 C 550.121094 406.695312 562.25 376.097656 564.054688 343.945312 C 565.769531 313.1875 557.910156 282.960938 546.445312 254.128906 C 542.679688 244.695312 538.550781 235.402344 534.226562 226.28125 C 516.6875 189.328125 495.875 153.621094 484.21875 114.414062 C 481.820312 106.324219 479.859375 98.011719 478.421875 89.609375 C 492.042969 92.8125 505.992188 95 519.769531 97.136719 C 526.210938 98.132812 532.859375 99.167969 539.335938 100.285156 C 589.242188 108.949219 620.960938 126.191406 636.292969 153.042969 C 645.324219 168.851562 648.195312 187.703125 650.996094 205.941406 C 651.730469 210.808594 652.589844 216.339844 653.535156 221.625 C 663.984375 279.386719 692.902344 332.792969 735.347656 373.191406 L 735.347656 737.769531 Z M 477.199219 81.539062 C 491.5 85.09375 506.308594 87.421875 520.90625 89.679688 L 521.625 89.785156 C 527.871094 90.765625 534.3125 91.761719 540.597656 92.847656 C 592.867188 101.914062 626.296875 120.382812 642.820312 149.296875 C 652.554688 166.328125 655.53125 185.882812 658.417969 204.804688 C 659.207031 209.96875 660.011719 215.21875 660.921875 220.277344 C 670.652344 274.085938 696.855469 324.007812 735.332031 362.636719 L 735.332031 -16.589844 L 499.707031 -16.589844 C 496.628906 -12.949219 493.808594 -9.007812 491.359375 -4.71875 C 476.601562 21.132812 473.382812 51.710938 477.199219 81.539062 Z M 477.199219 81.539062 " fill-opacity="1" fill-rule="nonzero"/></g><g clip-path="url(#635ac26e2b)"><path fill="#533e85" d="M 7.789062 827.546875 C 3.695312 836.703125 0.332031 847.378906 -1.488281 858.617188 L -9.136719 858.617188 C -7.246094 846.242188 -3.605469 834.480469 0.875 824.449219 C 11.363281 800.992188 27.078125 780.304688 42.273438 760.296875 C 49.152344 751.246094 56.207031 741.953125 62.648438 732.570312 C 70.578125 721.035156 77.019531 709.832031 81.957031 698.996094 C 92.894531 675 96.5 652.75 92.667969 632.570312 C 86.472656 599.941406 61.597656 574.457031 37.53125 549.792969 C 33.679688 545.835938 29.8125 541.878906 25.996094 537.855469 C 4.640625 515.394531 -14.980469 491.414062 -19.777344 460.941406 C -22.542969 443.316406 -19.917969 426.214844 -14.859375 409.53125 C -10.464844 395.074219 -4.253906 380.914062 1.875 366.980469 C 9.15625 350.421875 16.664062 333.320312 20.9375 316.128906 C 33.382812 265.996094 17.523438 210.300781 -19.464844 174.257812 C -51.003906 143.574219 -96.359375 128.574219 -139.875 133.300781 L -139.875 125.667969 C -94.398438 120.992188 -47.101562 136.765625 -14.195312 168.832031 C 24.699219 206.730469 41.363281 265.261719 28.269531 317.96875 C 23.84375 335.785156 16.210938 353.167969 8.824219 369.988281 C 2.136719 385.21875 -4.375 400.007812 -8.59375 414.835938 C -12.792969 429.625 -14.71875 444.433594 -12.304688 459.769531 C -8.191406 485.9375 8.191406 507.535156 26.871094 527.71875 C 32.121094 533.390625 37.546875 538.957031 42.921875 544.472656 C 67.777344 569.9375 93.472656 596.265625 100.105469 631.152344 C 104.238281 652.925781 100.441406 676.730469 88.800781 702.21875 C 83.671875 713.457031 77.035156 725.007812 68.878906 736.875 C 62.296875 746.433594 55.175781 755.816406 48.296875 764.882812 C 33.347656 784.59375 17.90625 804.914062 7.789062 827.546875 Z M 388.523438 6.535156 C 391.078125 30.234375 405.710938 54.355469 425.789062 68.027344 C 441.753906 78.894531 459.765625 85.214844 478.40625 89.609375 C 492.023438 92.8125 505.976562 95 519.75 97.136719 C 526.191406 98.132812 532.84375 99.167969 539.320312 100.285156 C 589.222656 108.949219 620.941406 126.191406 636.277344 153.042969 C 645.308594 168.851562 648.179688 187.703125 650.980469 205.941406 C 651.714844 210.808594 652.570312 216.339844 653.515625 221.625 C 663.96875 279.386719 692.882812 332.792969 735.332031 373.191406 L 735.332031 362.65625 C 696.875 324.023438 670.671875 274.101562 660.921875 220.292969 C 660.011719 215.21875 659.207031 209.96875 658.417969 204.820312 C 655.53125 185.917969 652.535156 166.347656 642.820312 149.316406 C 626.296875 120.398438 592.867188 101.933594 540.597656 92.863281 C 534.3125 91.78125 527.855469 90.765625 521.625 89.800781 L 520.90625 89.695312 C 506.308594 87.421875 491.5 85.109375 477.199219 81.558594 C 460.339844 77.375 444.21875 71.457031 430.023438 61.8125 C 411.699219 49.332031 398.34375 27.328125 396.015625 5.746094 C 395.140625 -2.304688 395.855469 -9.8125 398.042969 -16.570312 L 390.167969 -16.570312 C 388.207031 -9.464844 387.628906 -1.710938 388.523438 6.535156 Z M 388.523438 6.535156 " fill-opacity="1" fill-rule="nonzero"/></g></svg>